<?xml version="1.0" encoding="UTF-8" standalone="no"?>
<svg
   data-name="Layer 1"
   width="921"
   height="647.73602"
   viewBox="0 0 921 647.73602"
   version="1.1"
   id="svg106"
   sodipodi:docname="undraw_playing_cards.svg"
   inkscape:version="1.1.2 (b8e25be833, 2022-02-05)"
   xmlns:inkscape="http://www.inkscape.org/namespaces/inkscape"
   xmlns:sodipodi="http://sodipodi.sourceforge.net/DTD/sodipodi-0.dtd"
   xmlns="http://www.w3.org/2000/svg"
   xmlns:svg="http://www.w3.org/2000/svg"
   xmlns:rdf="http://www.w3.org/1999/02/22-rdf-syntax-ns#"
   xmlns:cc="http://creativecommons.org/ns#"
   xmlns:dc="http://purl.org/dc/elements/1.1/">
  <defs
     id="defs110" />
  <sodipodi:namedview
     id="namedview108"
     pagecolor="#ffffff"
     bordercolor="#666666"
     borderopacity="1.0"
     inkscape:pageshadow="2"
     inkscape:pageopacity="0.0"
     inkscape:pagecheckerboard="0"
     showgrid="false"
     inkscape:zoom="1"
     inkscape:cx="460.5"
     inkscape:cy="324"
     inkscape:window-width="1920"
     inkscape:window-height="1017"
     inkscape:window-x="-8"
     inkscape:window-y="-8"
     inkscape:window-maximized="1"
     inkscape:current-layer="svg106" />
  <title
     id="title2">playing cards</title>
  <path
     d="M867.30078,771.82324a50.16694,50.16694,0,0,1-13.54492-1.87109L670.73145,720.96289l.5371-1.92578,183.02637,48.98926a48.16143,48.16143,0,0,0,13.00586,1.79687c21.53906,0,40.64258-12.48047,46.45606-33.21386L1044.043,271.99072h-.001l.28418-1.01123a48.28977,48.28977,0,0,0-33.42969-59.4126L716.7041,129.07129a48.29038,48.29038,0,0,0-59.46094,33.4165l-10.22168,36.46-1.92578-.54,10.22168-36.46a50.29063,50.29063,0,0,1,61.92676-34.80224l294.19238,82.4956a50.29149,50.29149,0,0,1,35.0625,60.96143l.00879.00244-.26953.96289L915.68262,737.14941C909.62793,758.74219,889.73242,771.82324,867.30078,771.82324Z"
     transform="translate(-139.5 -125.26398)"
     fill="#2f2e41"
     id="path4"
     style="fill:#5599ff" />
  <path
     d="M750.397,453.726s-5.05855,32.85439-6.56141,34.51011,10.50007,40.333,10.50007,40.333l38.48867-22.44154s7.48855-41.52013,9.95427-42.90585S750.397,453.726,750.397,453.726Z"
     transform="translate(-139.5 -125.26398)"
     fill="#ffb8b8"
     id="path14" />
  <path
     d="M750.397,453.726s-5.05855,32.85439-6.56141,34.51011,10.50007,40.333,10.50007,40.333l38.48867-22.44154s7.48855-41.52013,9.95427-42.90585S750.397,453.726,750.397,453.726Z"
     transform="translate(-139.5 -125.26398)"
     opacity="0.1"
     id="path16" />
  <circle
     cx="640.67419"
     cy="322.27193"
     r="38"
     fill="#ffb8b8"
     id="circle18" />
  <path
     d="M763.7042,506.27039l-3.31144-3.00572-14.8847-21.18423s-1.70823-1.12439-3.32823,4.65277l-1.62,5.77716-13.98432,5.42575-30.94282,132.569,82.806,23.22,34.1014-132.72187-16.01721-16.95432-1.77345-8.1795-24.72806,10.09525Z"
     transform="translate(-139.5 -125.26398)"
     fill="#fff"
     id="path20" />
  <path
     d="M670,644.09l2,.56,128.96,36.16,43.12-142.65s-10.2-8.06-18.18-9.26c0,0-13.4-15.18-19.17-16.8-5.78-1.62-12.17-15.87-12.17-15.87s-6.75,24.07-18.35,39.51-31.8,68.98-31.8,68.98l-5.7-98.19,6.4-24.69a45.464,45.464,0,0,0-10.06,8.09c-4.51,4.96-16.02,9-16.02,9s-30.32,8.12-35.68,8.7c-5.35.57-7.82,1.96-7.82,1.96L672,533.88l-2,13.76Z"
     transform="translate(-139.5 -125.26398)"
     fill="#2f2e41"
     id="path22" />
  <path
     d="M687.6,588.79c-1.2,7.97-13.54,40.86-13.54,40.86L672,631.72l-2,2.01V511.92a5.61755,5.61755,0,0,1,2-1.39,13.71966,13.71966,0,0,1,3.53-.94l3.86,1.08S688.8,580.81,687.6,588.79Z"
     transform="translate(-139.5 -125.26398)"
     fill="#2f2e41"
     id="path24" />
  <path
     d="M775.44293,631.07505s18.92574-34.1587,33.25151-25.98726-8.64,30.81153-8.64,30.81153Z"
     transform="translate(-139.5 -125.26398)"
     fill="#ffb8b8"
     id="path26" />
  <path
     d="M716.86131,617.76364s-36.31869-11.22286-37.12869-8.33428-10.7543,19.83293-7.86572,20.64293,25.30437,6.05714,25.03437,7.02,10.74432,6.12858,10.74432,6.12858Z"
     transform="translate(-139.5 -125.26398)"
     fill="#ffb8b8"
     id="path28" />
  <polygon
     points="648.165 384.489 625.05 385.398 620.236 384.048 600.963 371.253 594.58 390.355 618.886 388.862 623.7 390.212 643.686 404.125 648.165 384.489"
     fill="#0066ff"
     id="polygon30" />
  <polygon
     points="586.05 528.176 582.5 535.736 531.5 521.736 530.5 518.826 530.5 502.796 532.5 503.576 534.56 504.386 586.05 528.176"
     fill="#2f2e41"
     id="polygon32" />
  <path
     d="M727.45278,620.73364s-11.97719-5.43572-12.24719-4.47286-16.34288,28.65153-12.49144,29.73153,17.48435,8.01858,17.48435,8.01858Z"
     transform="translate(-139.5 -125.26398)"
     fill="#fff"
     id="path34" />
  <path
     d="M837.34017,536.26612l6.74,1.89s3.85144,1.08,4.15716,7.39716,5.53292,35.82439,3.06719,37.21011-3.15858.15287-1.77286,2.61859,2.61859,1.77286,1.11573,3.42858S845.696,643.505,834.51886,661.14222s-14.57,26.033-18.42146,24.953L716.267,658.10129s4.44578-39.25765,8.56722-39.14051S796.473,633.85646,796.473,633.85646,822.62726,533.179,837.34017,536.26612Z"
     transform="translate(-139.5 -125.26398)"
     fill="#2f2e41"
     id="path36" />
  <path
     d="M757.78487,405.88642l-6.2345-4.47128s18.58634-10.44541,38.42854-3.51981l-4.08748-7.273S801.192,389.46685,810.09806,406.26c4.68172,8.82778,10.06253,19.17007,12.26158,29.73748l7.43484,2.08484-4.84329,5.33591,9.12032,9.25151-10.83473-4.24064a32.524,32.524,0,0,1-5.56145,15.77732l-4.47115,6.23443s-4.43484-23.02763-3.72693-25.55215l-1.76976,6.31126s-5.34963-7.62685-4.28778-11.41359l-5.02557,3.356.05338-7.47333-25.2984.39427,5.37951-4.61825-15.0468-2.17709,7.627-5.34958s-18.70994,3.60324-21.28794,10.36864c-2.57778,6.76535-13.26,13.30046-13.26,13.30046l-2.017-7.37311S736.82762,410.22094,757.78487,405.88642Z"
     transform="translate(-139.5 -125.26398)"
     fill="#2f2e41"
     id="path38" />
  <path
     d="M840.40847,362.03937a3.58691,3.58691,0,1,1,4.42216-2.48523A3.59071,3.59071,0,0,1,840.40847,362.03937Zm1.39693-4.98167a1.58691,1.58691,0,1,0,1.09951,1.95644A1.58875,1.58875,0,0,0,841.8054,357.0577Z"
     transform="translate(-139.5 -125.26398)"
     fill="#0066ff"
     id="path42" />
  <path
     d="m 669.90606,227.17907 a 3.58692,3.58692 0 1 1 4.42216,-2.48524 3.59074,3.59074 0 0 1 -4.42216,2.48524 z m 1.39693,-4.98168 a 1.58692,1.58692 0 1 0 1.09951,1.95645 1.58875,1.58875 0 0 0 -1.09951,-1.95645 z"
     fill="#0066ff"
     id="path44" />
  <path
     d="M777.63572,351.15424a3.58691,3.58691,0,1,1,4.42216-2.48523A3.59072,3.59072,0,0,1,777.63572,351.15424Zm1.39693-4.98167a1.58691,1.58691,0,1,0,1.09951,1.95644A1.58875,1.58875,0,0,0,779.03265,346.17257Z"
     transform="translate(-139.5 -125.26398)"
     fill="#0066ff"
     id="path46" />
  <path
     d="M717.1894,379.87858a3.58691,3.58691,0,1,1,4.42216-2.48523A3.59071,3.59071,0,0,1,717.1894,379.87858Zm1.39693-4.98167a1.58691,1.58691,0,1,0,1.09951,1.95644A1.58875,1.58875,0,0,0,718.58633,374.89691Z"
     transform="translate(-139.5 -125.26398)"
     fill="#0066ff"
     id="path48" />
  <path
     d="M740.56282,363.5954a3.58692,3.58692,0,1,1,4.42217-2.48523A3.59115,3.59115,0,0,1,740.56282,363.5954Zm1.39694-4.98168a1.58692,1.58692,0,1,0,1.09951,1.95645A1.58886,1.58886,0,0,0,741.95976,358.61372Z"
     transform="translate(-139.5 -125.26398)"
     fill="#0066ff"
     id="path50" />
  <polygon
     points="720.272 575.155 719.31 574.885 530.809 522.027 531.348 520.101 718.887 572.69 837.418 149.994 573.112 75.88 532.799 219.645 530.873 219.105 571.728 73.414 572.689 73.684 839.883 148.609 839.613 149.571 720.272 575.155"
     fill="#2f2e41"
     id="polygon52"
     style="fill:#0066ff" />
  <path
     d="m 49.080922,582.24366 c 24.353402,45.16436 76.040088,64.55258 76.040088,64.55258 0,0 12.202,-53.83791 -12.15141,-99.00237 -24.353398,-45.16445 -76.040082,-64.55258 -76.040082,-64.55258 0,0 -12.201979,53.83792 12.151404,99.00237 z"
     fill="#2f2e41"
     id="path54"
     style="fill:#2a7fff;stroke-width:1.95949" />
  <path
     d="m 77.591365,583.76438 c 34.698035,20.87548 48.061355,62.33995 48.061355,62.33995 0,0 -42.893332,7.61862 -77.591365,-13.25687 C 13.363323,611.97198 0,570.50751 0,570.50751 c 0,0 42.893317,-7.6187 77.591365,13.25687 z"
     fill="#0066ff"
     id="path56"
     style="stroke-width:1.54637" />
  <path
     d="M669.88,225.94a49.004,49.004,0,0,0-8.07-15.67,49.78347,49.78347,0,0,0-4.17-4.77A49.1065,49.1065,0,0,0,622.77,191H317.23A49.28,49.28,0,0,0,268,240.23V723.77A49.28,49.28,0,0,0,317.23,773H622.77A49.28,49.28,0,0,0,672,723.77V240.23A48.87057,48.87057,0,0,0,669.88,225.94ZM670,723.77A47.287,47.287,0,0,1,622.77,771H317.23A47.287,47.287,0,0,1,270,723.77V240.23A47.287,47.287,0,0,1,317.23,193H622.77a47.1127,47.1127,0,0,1,34.25,14.74q.735.78,1.44,1.59A47.12039,47.12039,0,0,1,670,240.23Z"
     transform="translate(-139.5 -125.26398)"
     fill="#2f2e41"
     id="path58"
     style="fill:#80b3ff" />
  <path
     d="M494.64587,465.71115c-13.61413-23.00368-40.54861-24.07575-40.54861-24.07575s-26.24611-3.35633-43.08283,31.67855c-15.69316,32.65539-37.35172,64.18483-3.48685,71.82921l6.117-19.03877,3.78821,20.45619a132.50656,132.50656,0,0,0,14.48952.24764c36.26655-1.1709,70.805.34257,69.69287-12.67139C500.13683,516.83661,507.7454,487.84528,494.64587,465.71115Z"
     transform="translate(-139.5 -125.26398)"
     fill="#2f2e41"
     id="path68" />
  <path
     d="M444.42215,544.08708c.06586,2.58925.04615,5.32-1.2405,7.56794-2.55068,4.45626-8.77746,5.12336-12.52288,8.63562-3.93886,3.69364-4.38469,9.68822-4.57241,15.08473-.19626,5.642-.36277,11.469,1.6963,16.7255A40.65962,40.65962,0,0,0,432.533,600.262q3.43009,4.94445,6.92363,9.84448a42.50313,42.50313,0,0,0,4.14572,5.20265c4.17109,4.24877,9.89244,6.60062,15.60508,8.27864,3.6909,1.08416,7.67613,1.92868,11.3382.7508a21.70662,21.70662,0,0,0,6.59342-4.05429c2.72367-2.163,5.48919-4.37013,7.46327-7.23368,3.07515-4.46076,3.9263-10.045,4.56372-15.42537a332.8629,332.8629,0,0,0,2.19408-47.95141,11.75257,11.75257,0,0,0-.91547-5.09484c-1.89659-3.70333-6.97627-4.49394-9.65283-7.6795-2.28838-2.72357-2.38171-6.61049-2.36218-10.16775l.0497-9.056a3.79376,3.79376,0,0,0-.44011-2.20632,3.73782,3.73782,0,0,0-2.59772-1.212,87.5709,87.5709,0,0,0-17.03739-1.13982c-4.62344.14128-13.49452-.24571-17.49227,2.3294-3.62874,2.33741.91468,8.79312,1.75522,12.4194A80.91135,80.91135,0,0,1,444.42215,544.08708Z"
     transform="translate(-139.5 -125.26398)"
     fill="#a0616a"
     id="path70" />
  <circle
     cx="315.53427"
     cy="366.66826"
     r="36.60356"
     fill="#a0616a"
     id="circle72" />
  <path
     d="M439.9618,582.5968a53.54739,53.54739,0,0,1-5.70845-11.0871c-1.309-3.956-1.65238-8.37707-.09939-12.24377-3.95536-2.29515-9.32568-.43652-12.20618,3.11528s-3.76206,8.31289-4.016,12.87886.01525,9.19913-.9784,13.6629c-2.19838,9.87576-10.35606,17.99484-10.9627,28.09413-.59681,9.93558,6.21635,18.59093,9.56811,27.9631a46.63021,46.63021,0,0,1,2.49807,18.20141c-.1086,1.99268-.23372,4.2638,1.17235,5.68a6.47817,6.47817,0,0,0,2.53351,1.365c16.17372,5.69027,33.6437,6.18254,50.78371,6.61669l28.30959.71707a9.02291,9.02291,0,0,0,4.99916-.83715c2.53981-1.55726,2.87974-5.04794,2.92292-8.02684.37188-25.65639-.71942-51.30895-1.81047-76.94483-.39546-9.29189-.79763-18.63767-2.768-27.72684-.50174-2.31446-1.32449-4.88824-3.46107-5.90975-1.8085-.86464-3.95412-.30484-5.83455.38962a46.4571,46.4571,0,0,0-21.758,16.749c-5.80877,8.26728-8.66611,18.18454-14.351,26.51457-4.12547,6.045-6.51143.77665-9.26012-3.675Q444.7501,590.34382,439.9618,582.5968Z"
     transform="translate(-139.5 -125.26398)"
     fill="#fff"
     id="path74" />
  <path
     d="M435.58,559.8986c-.72.51-1.43,1.05-2.11005,1.62a40.84911,40.84911,0,0,0-6.8,7.16,56.72208,56.72208,0,0,0-7.7,14.53c-3.32,9.1-4.76,18.76-6.13995,28.34a68.39774,68.39774,0,0,0-.97,10.68c.21,13.16,7.99,25.35,8,38.52,0,.5-.01.99-.04,1.49a43.26068,43.26068,0,0,1-.76,6.42c-.57,3.09-1.39,6.14-2.2,9.18-2.04,7.62-4.24,15.52-8.22,22.21-.4.68-.83,1.35-1.27,2h-28c.22-.67.45-1.33.67-2q7.155-21.195,14.30005-42.38c1.46-4.32,2.92-8.66,3.95-13.1a124.07457,124.07457,0,0,0,2.41-16.63q1.65-17.385,2.17-34.84c.13-4.18.22-8.45,1.57-12.41a40.59828,40.59828,0,0,1,4.98-9.08q4.335-6.52506,8.67005-13.05c1.61-2.42,3.3-4.91,5.78-6.42,2.07-1.27,4.53-1.73,6.71-2.8a34.31183,34.31183,0,0,0,3.94-2.61c3.26-2.31,7.09-4.74,9.9-2.38a5.51383,5.51383,0,0,1,1.16,1.33,6.69111,6.69111,0,0,1,.43.77C448.71,552.28862,439.21,557.3286,435.58,559.8986Z"
     transform="translate(-139.5 -125.26398)"
     fill="#2f2e41"
     id="path76" />
  <path
     d="M527.82,702.04863H398.14c.7-.64,1.39-1.31,2.06-2,.1-.1.19-.2.29-.3,4.96-5.15,6.09-11.48,8.58-18.18005q2.805-7.575,5.61-15.14a7.83143,7.83143,0,0,1,1.43-2.69,4.43654,4.43654,0,0,1,1.97-1.18,7.642,7.642,0,0,1,1.74-.32,19.40735,19.40735,0,0,1,2.53,0q34.905,1.8,69.76,4.39,4.5.34506,9,.69c2.45,1.82,4.87,3.75,7.18,5.79,7.51,6.6,14.02,14.37,17.75,23.55.45,1.11.86,2.24,1.2,3.39C527.46,700.7086,527.65,701.37859,527.82,702.04863Z"
     transform="translate(-139.5 -125.26398)"
     fill="#2f2e41"
     id="path78" />
  <polygon
     points="349.127 338.23 322.517 324.291 285.77 329.993 278.167 363.573 297.093 362.845 302.38 350.508 302.38 362.641 311.113 362.305 316.181 342.665 319.349 363.573 350.394 362.939 349.127 338.23"
     fill="#2f2e41"
     id="polygon80" />
  <path
     d="M527.82,702.04863H498.54c-.21-.66-.41-1.33-.6-2a157.25975,157.25975,0,0,1-4.54-22.68c-.31-2.19-.58-4.39-.83-6.58-.16-1.39-.31-2.77-.46-4.16-1.68-15.44-2.97-31.03-7.69-45.81-.57-1.79-1.19-3.57-1.79-5.35a63.09619,63.09619,0,0,1-2.6-9.41c-1.28-7.32-.32-14.9-1.64-22.21-.74-4.08-2.21-7.67-3.1-11.41a23.10828,23.10828,0,0,1-.66-6.91,14.88177,14.88177,0,0,1,7.79-3.86c1.01-.17,2.15-.3,2.76-1.11a3.464,3.464,0,0,0,.46-2.04,97.95682,97.95682,0,0,0-.81-14.11c-.2-1.64-.45-3.28-.75-4.91-.01-.08-.03-.15-.04-.23,2.44-1.06,5.19-1.07,7.84-1.06,2.89.01,5.77.01,8.65.02q7.995.03,15.99.05c4.96.01,10.09.06,14.6,2.11,4.66,2.13,8.2,6.24,10.54,10.8s3.61,9.58,4.76,14.57a19.51973,19.51973,0,0,1,.5,4.21c.22,11.26-8.18,22.6-9.02,34.11-.27,3.73.04,7.49-.3,11.22-.34,3.74-1.34,7.4-1.52,11.14-.01.19-.02.39-.02.58-.11,4.87,1.31,9.64,2.95,14.23,2.54,7.13,5.63,14.04,8.82,20.91,3.08,6.65,6.24,13.27,9.08,20.01a34.26306,34.26306,0,0,1,2.95,9.89,13.72406,13.72406,0,0,1-1.51,7.99,9.3757,9.3757,0,0,1-1.19,1.69l-.02.02c-.09.1-.18.2-.27.29H527.82Z"
     transform="translate(-139.5 -125.26398)"
     fill="#2f2e41"
     id="path82" />
  <path
     d="M555.71,691.78862a11.082,11.082,0,0,1-1.07,3.83c-.05.12-.1.23-.15.35-.58,1.37-1.17,2.72-1.78,4.08-.3.66-.6,1.33-.91,2H535.24a18.53555,18.53555,0,0,0,1.66-2c2.54-3.53,4.01-7.82,6.6-11.63a8.9538,8.9538,0,0,1,1.21-1.44C548.86,682.9586,555.97,683.77861,555.71,691.78862Z"
     transform="translate(-139.5 -125.26398)"
     fill="#ffb8b8"
     id="path84" />
  <path
     d="M566.49,702.04863a19.61817,19.61817,0,0,0,.53-2c.12-.53.22-1.05.3-1.58.53-3.49.52-7.06,1.35-10.49,1.17-4.91,4.68-10.72,1.79-14.85a15.69052,15.69052,0,0,0,6.21-2.78c1.72-1.5,2.72-4.1,1.68-6.14-1.03-2.01-3.82-3.34-3.44-5.57a5.313,5.313,0,0,1,.98-1.94,14.52982,14.52982,0,0,0-.25-15.94c-.91-1.3-2.03-2.44-2.86-3.8a22.66345,22.66345,0,0,1-2.07-5.27,98.1662,98.1662,0,0,0-12.63-26.18,17.37178,17.37178,0,0,1-2.79-5.16,21.30405,21.30405,0,0,1-.22-6.13c.2-8.08-2.82-15.97-7.17-22.77-.32-.5-.65-.99-.98-1.48-4.2-6.19-9.41-11.62-14.6-17.01-2.14,1-4.03,1.65-5.14,3.73a11.086,11.086,0,0,0-.99,3.72c-1.42,9.9-2.65,19.86-3.61,29.81-.48,5.03-.97,10.1-.4,15.12s2.28,10.05,5.68,13.78c2.13,2.34,4.83,4.08,7.14,6.24q.555.525,1.08,1.08a35.40951,35.40951,0,0,1,4.41,5.79,49.92056,49.92056,0,0,1,7.34,29.93,48.64077,48.64077,0,0,1-.75,5.64,23.32684,23.32684,0,0,1-2.66,7.6c-1.05,1.73-2.43,3.24-3.38,5.03s-1.4,4.02-.46,5.81a11.83106,11.83106,0,0,1,4.13.74,17.52948,17.52948,0,0,1,7.8,5.95,25.93811,25.93811,0,0,1,1.98,3.04,37.44769,37.44769,0,0,1,1.98,4.08c.24.55.47,1.12.69,1.69a1.65873,1.65873,0,0,1,.12.31Z"
     transform="translate(-139.5 -125.26398)"
     fill="#2f2e41"
     id="path86" />
  <polygon
     points="345.231 402.805 324.027 412.053 319.051 412.545 296.446 407.631 297.443 427.746 319.543 417.521 324.519 417.029 348.195 422.725 345.231 402.805"
     fill="#0066ff"
     id="polygon88" />
  <path
     d="M527.24,700.04863c.22.66.41,1.33.58,2h7.42a18.53555,18.53555,0,0,0,1.66-2Zm-195.99-439v441h276.5v-441Zm274.5,439H333.25v-437h272.5Zm-78.51,0c.22.66.41,1.33.58,2h7.42a18.53555,18.53555,0,0,0,1.66-2Z"
     transform="translate(-139.5 -125.26398)"
     fill="#2f2e41"
     id="path90"
     style="fill:#0066ff" />
  <path
     d="M408.67139,391.87724a3.58691,3.58691,0,1,1,3.58691,3.58692A3.59072,3.59072,0,0,1,408.67139,391.87724Zm2,0a1.58691,1.58691,0,1,0,1.58691-1.58691A1.58875,1.58875,0,0,0,410.67139,391.87724Z"
     transform="translate(-139.5 -125.26398)"
     fill="#0066ff"
     id="path94" />
  <path
     d="M434.541,391.87724a3.58691,3.58691,0,1,1,3.58691,3.58692A3.59072,3.59072,0,0,1,434.541,391.87724Zm2,0a1.58691,1.58691,0,1,0,1.58691-1.58691A1.58875,1.58875,0,0,0,436.541,391.87724Z"
     transform="translate(-139.5 -125.26398)"
     fill="#0066ff"
     id="path96" />
  <path
     d="M472.05176,398.345a3.58692,3.58692,0,1,1,3.58691,3.58691A3.59072,3.59072,0,0,1,472.05176,398.345Zm2,0a1.58692,1.58692,0,1,0,1.58691-1.58692A1.58874,1.58874,0,0,0,474.05176,398.345Z"
     transform="translate(-139.5 -125.26398)"
     fill="#0066ff"
     id="path98" />
  <path
     d="M522.49756,442.323a3.58692,3.58692,0,1,1,3.58691,3.58692A3.59073,3.59073,0,0,1,522.49756,442.323Zm2,0a1.58692,1.58692,0,1,0,1.58691-1.58691A1.58875,1.58875,0,0,0,524.49756,442.323Z"
     transform="translate(-139.5 -125.26398)"
     fill="#0066ff"
     id="path100" />
  <path
     d="M504.38867,420.33379a3.58716,3.58716,0,1,1,3.58692,3.58691A3.59073,3.59073,0,0,1,504.38867,420.33379Zm2,0a1.58716,1.58716,0,1,0,1.58692-1.58692A1.58875,1.58875,0,0,0,506.38867,420.33379Z"
     transform="translate(-139.5 -125.26398)"
     fill="#0066ff"
     id="path102" />
  <rect
     x="12"
     y="645.28465"
     width="909"
     height="2"
     fill="#3f3d56"
     id="rect104"
     style="fill:#80b3ff" />
  <metadata
     id="metadata112">
    <rdf:RDF>
      <cc:Work
         rdf:about="">
        <dc:title>playing cards</dc:title>
      </cc:Work>
    </rdf:RDF>
  </metadata>
  <text
     xml:space="preserve"
     style="font-style:normal;font-variant:normal;font-weight:normal;font-stretch:normal;font-size:47.1036px;line-height:1.25;font-family:sans-serif;-inkscape-font-specification:'sans-serif, Normal';font-variant-ligatures:normal;font-variant-caps:normal;font-variant-numeric:normal;font-variant-east-asian:normal;fill:#0055d4;fill-opacity:1;stroke:none;stroke-width:1.17759"
     x="169.38882"
     y="117.69721"
     id="text3741"
     transform="scale(0.9268496,1.0789237)"><tspan
       sodipodi:role="line"
       id="tspan3739"
       x="169.38882"
       y="117.69721"
       style="font-style:normal;font-variant:normal;font-weight:normal;font-stretch:normal;font-size:47.1036px;font-family:sans-serif;-inkscape-font-specification:'sans-serif, Normal';font-variant-ligatures:normal;font-variant-caps:normal;font-variant-numeric:normal;font-variant-east-asian:normal;stroke-width:1.17759">5</tspan></text>
  <text
     xml:space="preserve"
     style="font-style:normal;font-variant:normal;font-weight:normal;font-stretch:normal;font-size:47.1036px;line-height:1.25;font-family:sans-serif;-inkscape-font-specification:'sans-serif, Normal';font-variant-ligatures:normal;font-variant-caps:normal;font-variant-numeric:normal;font-variant-east-asian:normal;fill:#0055d4;fill-opacity:1;stroke:none;stroke-width:1.17759"
     x="586.39996"
     y="57.184792"
     id="text6115"
     transform="scale(0.9268496,1.0789237)"><tspan
       sodipodi:role="line"
       id="tspan6113"
       x="586.39996"
       y="57.184792"
       style="font-style:normal;font-variant:normal;font-weight:normal;font-stretch:normal;font-size:47.1036px;font-family:sans-serif;-inkscape-font-specification:'sans-serif, Normal';font-variant-ligatures:normal;font-variant-caps:normal;font-variant-numeric:normal;font-variant-east-asian:normal;stroke-width:1.17759">7</tspan></text>
  <text
     xml:space="preserve"
     style="font-style:normal;font-variant:normal;font-weight:normal;font-stretch:normal;font-size:47.1036px;line-height:1.25;font-family:sans-serif;-inkscape-font-specification:'sans-serif, Normal';font-variant-ligatures:normal;font-variant-caps:normal;font-variant-numeric:normal;font-variant-east-asian:normal;fill:#0055d4;fill-opacity:1;stroke:none;stroke-width:1.17759"
     x="-948.53943"
     y="-344.00616"
     id="text6119"
     transform="matrix(-0.89526795,-0.23988633,0.279246,-1.0421603,0,0)"><tspan
       sodipodi:role="line"
       id="tspan6117"
       x="-948.53943"
       y="-344.00616"
       style="font-style:normal;font-variant:normal;font-weight:normal;font-stretch:normal;font-size:47.1036px;font-family:sans-serif;-inkscape-font-specification:'sans-serif, Normal';font-variant-ligatures:normal;font-variant-caps:normal;font-variant-numeric:normal;font-variant-east-asian:normal;stroke-width:1.17759">7</tspan></text>
  <text
     xml:space="preserve"
     style="font-style:normal;font-variant:normal;font-weight:normal;font-stretch:normal;font-size:47.1036px;line-height:1.25;font-family:sans-serif;-inkscape-font-specification:'sans-serif, Normal';font-variant-ligatures:normal;font-variant-caps:normal;font-variant-numeric:normal;font-variant-east-asian:normal;fill:#0055d4;fill-opacity:1;stroke:none;stroke-width:1.17759"
     x="516.89813"
     y="580.01208"
     id="text6123"
     transform="scale(0.9268496,1.0789237)"><tspan
       sodipodi:role="line"
       id="tspan6121"
       x="516.89813"
       y="580.01208"
       style="font-style:normal;font-variant:normal;font-weight:normal;font-stretch:normal;font-size:47.1036px;font-family:sans-serif;-inkscape-font-specification:'sans-serif, Normal';font-variant-ligatures:normal;font-variant-caps:normal;font-variant-numeric:normal;font-variant-east-asian:normal;stroke-width:1.17759">5</tspan></text>
</svg>
